<?xml version="1.0" standalone="no"?>
<!DOCTYPE svg PUBLIC "-//W3C//DTD SVG 20010904//EN"
 "http://www.w3.org/TR/2001/REC-SVG-20010904/DTD/svg10.dtd">
<svg version="1.0" xmlns="http://www.w3.org/2000/svg"
 width="500.000000pt" height="500.000000pt" viewBox="0 0 500.000000 500.000000"
 preserveAspectRatio="xMidYMid meet">
<metadata>
Created by potrace 1.14, written by Peter Selinger 2001-2017
</metadata>
<g transform="translate(0.000000,500.000000) scale(0.100000,-0.100000)"
fill="#000000" stroke="none">
<path d="M1120 3157 c-85 -19 -150 -55 -212 -118 l-58 -57 0 74 0 74 -230 0
-230 0 0 -630 0 -630 240 0 239 0 3 388 3 387 27 46 c61 104 199 104 246 1 15
-32 17 -89 20 -429 l3 -393 239 0 239 0 3 388 3 387 27 46 c59 101 192 104
245 6 16 -29 18 -72 21 -429 l3 -398 240 0 239 0 0 429 c0 464 -5 524 -54 634
-74 168 -259 258 -469 229 -110 -16 -195 -58 -271 -136 -33 -33 -61 -55 -63
-49 -8 22 -62 84 -98 113 -81 64 -238 94 -355 67z"/>
<path d="M3175 3159 c-151 -14 -288 -75 -397 -178 -80 -75 -126 -147 -164
-256 -26 -73 -28 -92 -28 -225 0 -132 2 -153 27 -227 35 -106 111 -219 191
-285 220 -184 590 -207 847 -52 73 44 175 153 217 231 72 136 97 354 59 503
-88 337 -373 523 -752 489z m148 -343 c18 -7 42 -24 54 -37 61 -66 93 -223 75
-365 -21 -162 -87 -246 -191 -246 -125 0 -191 113 -191 327 0 162 39 270 113
315 37 23 94 26 140 6z"/>
<path d="M4261 2333 c-64 -23 -126 -89 -145 -154 -20 -65 -20 -92 -1 -155 39
-132 179 -203 317 -162 51 15 126 82 149 133 21 46 24 129 7 186 -15 51 -70
114 -121 141 -55 27 -148 33 -206 11z"/>
</g>
</svg>
